<svg version="1.2" xmlns="http://www.w3.org/2000/svg" viewBox="0 0 211 212" width="211" height="212">
	<title>GDN-Primary-Combination-Mark-Black-RGB-svg</title>
	<style>
		.s0 { fill: #ffffff } 
		.s1 { fill: #45bfdb } 
		.s2 { fill: #130d0c } 
	</style>
	<g id="Layer_1">
		<g id="Layer_2-2_00000183944124929363080720000015026139744952686756_">
			<g id="Layer_2-3_00000123417971178147556650000015061782316411633562_">
				<g id="Layer_2-4_00000013898881610797179540000010465390603949850270_">
					<g id="Layer">
						<path id="Layer" fill-rule="evenodd" class="s0" d="m59.9 0.5h91.1c20.8 0 28.4 2.2 36 6.2 7.6 4.1 13.6 10.1 17.7 17.7 4.1 7.6 6.2 15.2 6.2 36v91.1c0 20.8-2.2 28.4-6.2 36-4.1 7.6-10.1 13.6-17.7 17.7-7.6 4.1-15.2 6.2-36 6.2h-91.1c-20.8 0-28.4-2.2-36-6.2-7.6-4.1-13.6-10.1-17.7-17.7-4.1-7.6-6.2-15.2-6.2-36v-91.1c0-20.8 2.2-28.4 6.2-36 4.1-7.6 10.1-13.6 17.7-17.7 7.6-4 15.1-6.2 36-6.2z"/>
						<g id="Layer">
							<g id="Layer">
								<path id="Layer" class="s1" d="m129 52.4h-81.9c-4.7 0-6 1.2-6 6 0 4.7 1.2 6 6 6h81.9c4.7 0 6-1.2 6-6 0-4.7-1.2-6-6-6z"/>
								<path id="Layer" class="s1" d="m122.5 156.1c-2.1 1.9-13 11.2-27 8.6-8.9-1.6-14.5-7.3-16.3-9.2-8.9-9.1-9.8-20.5-9.8-25 0-2.7-1.7-5-4.3-5.8-2.6-0.7-5.3 0.3-6.7 2.6-2.2 3.6-5.1 6.6-8.4 9.1-1.8 1.3-3.8 2.5-6 3.4-4.4 1.9-5 3.5-3.1 7.8 1.9 4.4 3.5 5 7.8 3.1 2.9-1.2 5.7-2.8 8.2-4.6 0.8-0.6 1.6-1.2 2.4-1.9 1.8 6.2 5.1 13.3 11.3 19.7 2.5 2.5 10 10.2 22.7 12.5q3.6 0.6 6.9 0.6c16 0 27.8-10 30.3-12.2 3.5-3.2 3.6-4.9 0.4-8.4-3.2-3.5-5-3.5-8.4-0.3z"/>
								<path id="Layer" class="s1" d="m114 93.8h-16.6-50.2c-4.7 0-6 1.2-6 6 0 4.7 1.2 6 6 6h50.2 16.6c4.7 0 6-1.2 6-6-0.1-4.7-1.3-6-6-6z"/>
							</g>
							<path id="Layer" fill-rule="evenodd" class="s2" d="m183.9 54.8c2.6-7.3-1.1-15.3-8.4-18-7.3-2.6-15.3 1.1-18 8.4l-24.1 66.3c-0.9 2.3-1.3 4.8-1.2 7.3l0.8 23.2c0.1 3.9 4.9 5.6 7.5 2.7l15.5-17.3c1.7-1.9 3-4 3.8-6.4z"/>
						</g>
					</g>
				</g>
			</g>
		</g>
	</g>
</svg>